<svg width="32" height="32" viewBox="0 0 32 32" fill="none" xmlns="http://www.w3.org/2000/svg">
<rect width="32" height="32" rx="8" fill="#FFEBEE"/>
<path d="M7.66602 23.5V8.5H15.9993V11.8333H24.3327V23.5H7.66602ZM9.33268 21.8333H10.9993V20.1667H9.33268V21.8333ZM9.33268 18.5H10.9993V16.8333H9.33268V18.5ZM9.33268 15.1667H10.9993V13.5H9.33268V15.1667ZM9.33268 11.8333H10.9993V10.1667H9.33268V11.8333ZM12.666 21.8333H14.3327V20.1667H12.666V21.8333ZM12.666 18.5H14.3327V16.8333H12.666V18.5ZM12.666 15.1667H14.3327V13.5H12.666V15.1667ZM12.666 11.8333H14.3327V10.1667H12.666V11.8333ZM15.9993 21.8333H22.666V13.5H15.9993V15.1667H17.666V16.8333H15.9993V18.5H17.666V20.1667H15.9993V21.8333ZM19.3327 16.8333V15.1667H20.9993V16.8333H19.3327ZM19.3327 20.1667V18.5H20.9993V20.1667H19.3327Z" fill="#E53935"/>
</svg>
