<svg width="15" height="12" viewBox="0 0 15 12" fill="none" xmlns="http://www.w3.org/2000/svg">
<path d="M1.5 12C1.0875 12 0.734375 11.8531 0.440625 11.5594C0.146875 11.2656 0 10.9125 0 10.5V1.5C0 1.0875 0.146875 0.734375 0.440625 0.440625C0.734375 0.146875 1.0875 0 1.5 0H13.5C13.9125 0 14.2656 0.146875 14.5594 0.440625C14.8531 0.734375 15 1.0875 15 1.5V10.5C15 10.9125 14.8531 11.2656 14.5594 11.5594C14.2656 11.8531 13.9125 12 13.5 12H1.5ZM1.5 5.25H4.5V1.5H1.5V5.25ZM6 5.25H9V1.5H6V5.25ZM10.5 5.25H13.5V1.5H10.5V5.25ZM4.5 10.5V6.75H1.5V10.5H4.5ZM6 10.5H9V6.75H6V10.5ZM10.5 10.5H13.5V6.75H10.5V10.5Z" fill="white"/>
</svg>
