<svg width="32" height="34" viewBox="0 0 32 34" fill="none" xmlns="http://www.w3.org/2000/svg">
<rect y="2" width="32" height="32" rx="16" fill="#D7E4EC"/>
<path d="M12.0003 23.3334C11.4448 23.3334 10.9725 23.1389 10.5837 22.75C10.1948 22.3611 10.0003 21.8889 10.0003 21.3334H8.66699V14C8.66699 13.6334 8.79755 13.3195 9.05866 13.0584C9.31977 12.7972 9.63366 12.6667 10.0003 12.6667H19.3337V15.3334H21.3337L23.3337 18V21.3334H22.0003C22.0003 21.8889 21.8059 22.3611 21.417 22.75C21.0281 23.1389 20.5559 23.3334 20.0003 23.3334C19.4448 23.3334 18.9725 23.1389 18.5837 22.75C18.1948 22.3611 18.0003 21.8889 18.0003 21.3334H14.0003C14.0003 21.8889 13.8059 22.3611 13.417 22.75C13.0281 23.1389 12.5559 23.3334 12.0003 23.3334V23.3334M12.0003 22C12.1892 22 12.3475 21.9361 12.4753 21.8084C12.6031 21.6806 12.667 21.5222 12.667 21.3334C12.667 21.1445 12.6031 20.9861 12.4753 20.8584C12.3475 20.7306 12.1892 20.6667 12.0003 20.6667C11.8114 20.6667 11.6531 20.7306 11.5253 20.8584C11.3975 20.9861 11.3337 21.1445 11.3337 21.3334C11.3337 21.5222 11.3975 21.6806 11.5253 21.8084C11.6531 21.9361 11.8114 22 12.0003 22V22M10.0003 20H10.5337C10.7225 19.8 10.9392 19.6389 11.1837 19.5167C11.4281 19.3945 11.7003 19.3334 12.0003 19.3334C12.3003 19.3334 12.5725 19.3945 12.817 19.5167C13.0614 19.6389 13.2781 19.8 13.467 20H18.0003V14H10.0003V14V14V20V20M20.0003 22C20.1892 22 20.3475 21.9361 20.4753 21.8084C20.6031 21.6806 20.667 21.5222 20.667 21.3334C20.667 21.1445 20.6031 20.9861 20.4753 20.8584C20.3475 20.7306 20.1892 20.6667 20.0003 20.6667C19.8114 20.6667 19.6531 20.7306 19.5253 20.8584C19.3975 20.9861 19.3337 21.1445 19.3337 21.3334C19.3337 21.5222 19.3975 21.6806 19.5253 21.8084C19.6531 21.9361 19.8114 22 20.0003 22V22M19.3337 18.6667H22.167L20.667 16.6667H19.3337V18.6667V18.6667M14.0003 17V17V17V17V17V17V17V17V17V17V17V17V17" fill="#5A666D"/>
</svg>
